<mxfile host="app.diagrams.net" modified="2024-05-07T12:26:34.935Z" agent="Mozilla/5.0 (Macintosh; Intel Mac OS X 10_15_7) AppleWebKit/537.36 (KHTML, like Gecko) Chrome/124.0.0.0 Safari/537.36" etag="Wt81ka6XhLdUSADNw-3O" version="24.3.1" type="github">
  <diagram name="Page-1" id="IqXBtlmch41t1Q2g-Cph">
    <mxGraphModel dx="1026" dy="658" grid="1" gridSize="10" guides="1" tooltips="1" connect="1" arrows="1" fold="1" page="1" pageScale="1" pageWidth="827" pageHeight="1169" math="0" shadow="0">
      <root>
        <mxCell id="0" />
        <mxCell id="1" parent="0" />
        <mxCell id="rutlHOTIgdtYic9oYM7y-1" value="Actor" style="shape=umlActor;verticalLabelPosition=bottom;verticalAlign=top;html=1;outlineConnect=0;" parent="1" vertex="1">
          <mxGeometry x="50" y="80" width="30" height="60" as="geometry" />
        </mxCell>
        <mxCell id="rutlHOTIgdtYic9oYM7y-15" value="MetaMask" style="shape=umlLifeline;perimeter=lifelinePerimeter;whiteSpace=wrap;html=1;container=1;dropTarget=0;collapsible=0;recursiveResize=0;outlineConnect=0;portConstraint=eastwest;newEdgeStyle={&quot;curved&quot;:0,&quot;rounded&quot;:0};participant=umlEntity;" parent="1" vertex="1">
          <mxGeometry x="180" y="80" width="90" height="860" as="geometry" />
        </mxCell>
        <mxCell id="rutlHOTIgdtYic9oYM7y-16" value="TBond.sol" style="shape=umlLifeline;perimeter=lifelinePerimeter;whiteSpace=wrap;html=1;container=1;dropTarget=0;collapsible=0;recursiveResize=0;outlineConnect=0;portConstraint=eastwest;newEdgeStyle={&quot;curved&quot;:0,&quot;rounded&quot;:0};participant=umlEntity;" parent="1" vertex="1">
          <mxGeometry x="284" y="80" width="130" height="860" as="geometry" />
        </mxCell>
        <mxCell id="rutlHOTIgdtYic9oYM7y-19" value="Click Swap n Buy(USDC)" style="html=1;verticalAlign=bottom;endArrow=block;curved=0;rounded=0;" parent="1" edge="1">
          <mxGeometry width="80" relative="1" as="geometry">
            <mxPoint x="50" y="300" as="sourcePoint" />
            <mxPoint x="348.5" y="300" as="targetPoint" />
          </mxGeometry>
        </mxCell>
        <mxCell id="rutlHOTIgdtYic9oYM7y-20" value="ChainLinkFunctions" style="shape=umlLifeline;perimeter=lifelinePerimeter;whiteSpace=wrap;html=1;container=1;dropTarget=0;collapsible=0;recursiveResize=0;outlineConnect=0;portConstraint=eastwest;newEdgeStyle={&quot;curved&quot;:0,&quot;rounded&quot;:0};participant=umlEntity;" parent="1" vertex="1">
          <mxGeometry x="440" y="80" width="150" height="860" as="geometry" />
        </mxCell>
        <mxCell id="rutlHOTIgdtYic9oYM7y-21" value="fetchExchangeRate(T-bills)" style="html=1;verticalAlign=bottom;endArrow=block;curved=0;rounded=0;" parent="1" source="rutlHOTIgdtYic9oYM7y-22" edge="1">
          <mxGeometry width="80" relative="1" as="geometry">
            <mxPoint x="180" y="229.5" as="sourcePoint" />
            <mxPoint x="344.5" y="229.5" as="targetPoint" />
          </mxGeometry>
        </mxCell>
        <mxCell id="rutlHOTIgdtYic9oYM7y-22" value="UI" style="shape=umlLifeline;perimeter=lifelinePerimeter;whiteSpace=wrap;html=1;container=1;dropTarget=0;collapsible=0;recursiveResize=0;outlineConnect=0;portConstraint=eastwest;newEdgeStyle={&quot;curved&quot;:0,&quot;rounded&quot;:0};participant=umlEntity;" parent="1" vertex="1">
          <mxGeometry x="110" y="80" width="40" height="860" as="geometry" />
        </mxCell>
        <mxCell id="rutlHOTIgdtYic9oYM7y-23" value="Connect" style="html=1;verticalAlign=bottom;endArrow=block;curved=0;rounded=0;" parent="1" edge="1">
          <mxGeometry width="80" relative="1" as="geometry">
            <mxPoint x="50" y="180" as="sourcePoint" />
            <mxPoint x="130" y="180" as="targetPoint" />
          </mxGeometry>
        </mxCell>
        <mxCell id="rutlHOTIgdtYic9oYM7y-24" value="Connect" style="html=1;verticalAlign=bottom;endArrow=block;curved=0;rounded=0;" parent="1" target="rutlHOTIgdtYic9oYM7y-15" edge="1">
          <mxGeometry width="80" relative="1" as="geometry">
            <mxPoint x="130" y="190" as="sourcePoint" />
            <mxPoint x="210" y="190" as="targetPoint" />
          </mxGeometry>
        </mxCell>
        <mxCell id="rutlHOTIgdtYic9oYM7y-26" value="" style="html=1;verticalAlign=bottom;endArrow=open;dashed=1;endSize=8;curved=0;rounded=0;" parent="1" target="rutlHOTIgdtYic9oYM7y-22" edge="1">
          <mxGeometry relative="1" as="geometry">
            <mxPoint x="220" y="200" as="sourcePoint" />
            <mxPoint x="140" y="200" as="targetPoint" />
          </mxGeometry>
        </mxCell>
        <mxCell id="rutlHOTIgdtYic9oYM7y-27" value="External Nodes call" style="html=1;verticalAlign=bottom;endArrow=block;curved=0;rounded=0;" parent="1" target="rutlHOTIgdtYic9oYM7y-30" edge="1">
          <mxGeometry width="80" relative="1" as="geometry">
            <mxPoint x="350" y="240" as="sourcePoint" />
            <mxPoint x="430" y="240" as="targetPoint" />
          </mxGeometry>
        </mxCell>
        <mxCell id="rutlHOTIgdtYic9oYM7y-28" value="" style="html=1;verticalAlign=bottom;endArrow=open;dashed=1;endSize=8;curved=0;rounded=0;" parent="1" source="rutlHOTIgdtYic9oYM7y-30" edge="1">
          <mxGeometry relative="1" as="geometry">
            <mxPoint x="510" y="250" as="sourcePoint" />
            <mxPoint x="350" y="250" as="targetPoint" />
          </mxGeometry>
        </mxCell>
        <mxCell id="rutlHOTIgdtYic9oYM7y-29" value="result Exchange Rate" style="html=1;verticalAlign=bottom;endArrow=open;dashed=1;endSize=8;curved=0;rounded=0;" parent="1" target="rutlHOTIgdtYic9oYM7y-22" edge="1">
          <mxGeometry relative="1" as="geometry">
            <mxPoint x="350" y="260" as="sourcePoint" />
            <mxPoint x="270" y="260" as="targetPoint" />
          </mxGeometry>
        </mxCell>
        <mxCell id="rutlHOTIgdtYic9oYM7y-30" value="ChainLink DataFeeds" style="shape=umlLifeline;perimeter=lifelinePerimeter;whiteSpace=wrap;html=1;container=1;dropTarget=0;collapsible=0;recursiveResize=0;outlineConnect=0;portConstraint=eastwest;newEdgeStyle={&quot;curved&quot;:0,&quot;rounded&quot;:0};participant=umlEntity;" parent="1" vertex="1">
          <mxGeometry x="610" y="80" width="110" height="860" as="geometry" />
        </mxCell>
        <mxCell id="rutlHOTIgdtYic9oYM7y-31" value="External Api" style="shape=umlLifeline;perimeter=lifelinePerimeter;whiteSpace=wrap;html=1;container=1;dropTarget=0;collapsible=0;recursiveResize=0;outlineConnect=0;portConstraint=eastwest;newEdgeStyle={&quot;curved&quot;:0,&quot;rounded&quot;:0};participant=umlEntity;" parent="1" vertex="1">
          <mxGeometry x="740" y="80" width="60" height="860" as="geometry" />
        </mxCell>
        <mxCell id="rutlHOTIgdtYic9oYM7y-32" value="call External Api" style="html=1;verticalAlign=bottom;endArrow=block;curved=0;rounded=0;" parent="1" target="rutlHOTIgdtYic9oYM7y-20" edge="1">
          <mxGeometry width="80" relative="1" as="geometry">
            <mxPoint x="350" y="320" as="sourcePoint" />
            <mxPoint x="430" y="320" as="targetPoint" />
          </mxGeometry>
        </mxCell>
        <mxCell id="rutlHOTIgdtYic9oYM7y-33" value="Buy Call" style="html=1;verticalAlign=bottom;endArrow=block;curved=0;rounded=0;" parent="1" target="rutlHOTIgdtYic9oYM7y-31" edge="1">
          <mxGeometry width="80" relative="1" as="geometry">
            <mxPoint x="520" y="330" as="sourcePoint" />
            <mxPoint x="600" y="330" as="targetPoint" />
          </mxGeometry>
        </mxCell>
        <mxCell id="rutlHOTIgdtYic9oYM7y-34" value="" style="html=1;verticalAlign=bottom;endArrow=open;dashed=1;endSize=8;curved=0;rounded=0;" parent="1" target="rutlHOTIgdtYic9oYM7y-20" edge="1">
          <mxGeometry relative="1" as="geometry">
            <mxPoint x="770" y="340" as="sourcePoint" />
            <mxPoint x="690" y="340" as="targetPoint" />
          </mxGeometry>
        </mxCell>
        <mxCell id="rutlHOTIgdtYic9oYM7y-35" value="" style="html=1;verticalAlign=bottom;endArrow=open;dashed=1;endSize=8;curved=0;rounded=0;" parent="1" target="rutlHOTIgdtYic9oYM7y-16" edge="1">
          <mxGeometry relative="1" as="geometry">
            <mxPoint x="520" y="350" as="sourcePoint" />
            <mxPoint x="440" y="350" as="targetPoint" />
          </mxGeometry>
        </mxCell>
        <mxCell id="rutlHOTIgdtYic9oYM7y-38" value="Mint USTB" style="html=1;verticalAlign=bottom;endArrow=block;curved=0;rounded=0;" parent="1" edge="1">
          <mxGeometry width="80" relative="1" as="geometry">
            <mxPoint x="350" y="370" as="sourcePoint" />
            <mxPoint x="350" y="430" as="targetPoint" />
            <Array as="points">
              <mxPoint x="410" y="370" />
              <mxPoint x="410" y="430" />
            </Array>
            <mxPoint as="offset" />
          </mxGeometry>
        </mxCell>
        <mxCell id="rutlHOTIgdtYic9oYM7y-39" value="Results in the UI" style="html=1;verticalAlign=bottom;endArrow=open;dashed=1;endSize=8;curved=0;rounded=0;" parent="1" target="rutlHOTIgdtYic9oYM7y-22" edge="1">
          <mxGeometry relative="1" as="geometry">
            <mxPoint x="350" y="460" as="sourcePoint" />
            <mxPoint x="270" y="460" as="targetPoint" />
          </mxGeometry>
        </mxCell>
        <mxCell id="rutlHOTIgdtYic9oYM7y-42" value="Buy" style="shape=umlFrame;whiteSpace=wrap;html=1;pointerEvents=0;" parent="1" vertex="1">
          <mxGeometry x="10" y="190" width="790" height="350" as="geometry" />
        </mxCell>
        <mxCell id="rutlHOTIgdtYic9oYM7y-43" value="Sell" style="shape=umlFrame;whiteSpace=wrap;html=1;pointerEvents=0;" parent="1" vertex="1">
          <mxGeometry x="10" y="560" width="790" height="380" as="geometry" />
        </mxCell>
        <mxCell id="rutlHOTIgdtYic9oYM7y-44" value="fetchExchangeRate(T-bills)" style="html=1;verticalAlign=bottom;endArrow=block;curved=0;rounded=0;" parent="1" edge="1">
          <mxGeometry width="80" relative="1" as="geometry">
            <mxPoint x="130" y="610" as="sourcePoint" />
            <mxPoint x="344.5" y="609.5" as="targetPoint" />
          </mxGeometry>
        </mxCell>
        <mxCell id="rutlHOTIgdtYic9oYM7y-47" value="External Nodes call" style="html=1;verticalAlign=bottom;endArrow=block;curved=0;rounded=0;" parent="1" edge="1">
          <mxGeometry width="80" relative="1" as="geometry">
            <mxPoint x="350" y="620" as="sourcePoint" />
            <mxPoint x="665" y="620" as="targetPoint" />
          </mxGeometry>
        </mxCell>
        <mxCell id="rutlHOTIgdtYic9oYM7y-48" value="" style="html=1;verticalAlign=bottom;endArrow=open;dashed=1;endSize=8;curved=0;rounded=0;" parent="1" edge="1">
          <mxGeometry relative="1" as="geometry">
            <mxPoint x="665" y="630" as="sourcePoint" />
            <mxPoint x="350" y="630" as="targetPoint" />
          </mxGeometry>
        </mxCell>
        <mxCell id="rutlHOTIgdtYic9oYM7y-49" value="result Exchange Rate" style="html=1;verticalAlign=bottom;endArrow=open;dashed=1;endSize=8;curved=0;rounded=0;" parent="1" edge="1">
          <mxGeometry relative="1" as="geometry">
            <mxPoint x="350" y="650" as="sourcePoint" />
            <mxPoint x="130" y="650" as="targetPoint" />
          </mxGeometry>
        </mxCell>
        <mxCell id="rutlHOTIgdtYic9oYM7y-50" value="Click Swap n Sell (USTB)" style="html=1;verticalAlign=bottom;endArrow=block;curved=0;rounded=0;" parent="1" edge="1">
          <mxGeometry width="80" relative="1" as="geometry">
            <mxPoint x="50" y="700" as="sourcePoint" />
            <mxPoint x="348.5" y="700" as="targetPoint" />
          </mxGeometry>
        </mxCell>
        <mxCell id="rutlHOTIgdtYic9oYM7y-52" value="call External Api" style="html=1;verticalAlign=bottom;endArrow=block;curved=0;rounded=0;" parent="1" edge="1">
          <mxGeometry width="80" relative="1" as="geometry">
            <mxPoint x="350" y="710" as="sourcePoint" />
            <mxPoint x="515" y="710" as="targetPoint" />
          </mxGeometry>
        </mxCell>
        <mxCell id="rutlHOTIgdtYic9oYM7y-53" value="Sell Call" style="html=1;verticalAlign=bottom;endArrow=block;curved=0;rounded=0;" parent="1" edge="1">
          <mxGeometry width="80" relative="1" as="geometry">
            <mxPoint x="520" y="720" as="sourcePoint" />
            <mxPoint x="770" y="720" as="targetPoint" />
          </mxGeometry>
        </mxCell>
        <mxCell id="rutlHOTIgdtYic9oYM7y-54" value="" style="html=1;verticalAlign=bottom;endArrow=open;dashed=1;endSize=8;curved=0;rounded=0;" parent="1" edge="1">
          <mxGeometry relative="1" as="geometry">
            <mxPoint x="765" y="730" as="sourcePoint" />
            <mxPoint x="510" y="730" as="targetPoint" />
          </mxGeometry>
        </mxCell>
        <mxCell id="rutlHOTIgdtYic9oYM7y-55" value="" style="html=1;verticalAlign=bottom;endArrow=open;dashed=1;endSize=8;curved=0;rounded=0;" parent="1" edge="1">
          <mxGeometry relative="1" as="geometry">
            <mxPoint x="521" y="749.5" as="sourcePoint" />
            <mxPoint x="350" y="749.5" as="targetPoint" />
          </mxGeometry>
        </mxCell>
        <mxCell id="rutlHOTIgdtYic9oYM7y-56" value="Burn USTB" style="html=1;verticalAlign=bottom;endArrow=block;curved=0;rounded=0;" parent="1" edge="1">
          <mxGeometry width="80" relative="1" as="geometry">
            <mxPoint x="350" y="770" as="sourcePoint" />
            <mxPoint x="350" y="830" as="targetPoint" />
            <Array as="points">
              <mxPoint x="410" y="770" />
              <mxPoint x="410" y="830" />
            </Array>
            <mxPoint as="offset" />
          </mxGeometry>
        </mxCell>
        <mxCell id="rutlHOTIgdtYic9oYM7y-58" value="Transfer USDC" style="html=1;verticalAlign=bottom;endArrow=open;dashed=1;endSize=8;curved=0;rounded=0;" parent="1" target="rutlHOTIgdtYic9oYM7y-15" edge="1">
          <mxGeometry relative="1" as="geometry">
            <mxPoint x="350" y="850" as="sourcePoint" />
            <mxPoint x="270" y="850" as="targetPoint" />
          </mxGeometry>
        </mxCell>
        <mxCell id="rutlHOTIgdtYic9oYM7y-59" value="Results" style="html=1;verticalAlign=bottom;endArrow=open;dashed=1;endSize=8;curved=0;rounded=0;" parent="1" target="rutlHOTIgdtYic9oYM7y-22" edge="1">
          <mxGeometry relative="1" as="geometry">
            <mxPoint x="230" y="870" as="sourcePoint" />
            <mxPoint x="150" y="870" as="targetPoint" />
          </mxGeometry>
        </mxCell>
      </root>
    </mxGraphModel>
  </diagram>
</mxfile>
